<?xml version="1.0" standalone="no"?><!DOCTYPE svg PUBLIC "-//W3C//DTD SVG 1.1//EN" "http://www.w3.org/Graphics/SVG/1.1/DTD/svg11.dtd"><svg t="1643874372089" class="icon" viewBox="0 0 2380 1024" version="1.1" xmlns="http://www.w3.org/2000/svg" p-id="4032" xmlns:xlink="http://www.w3.org/1999/xlink" width="148.75" height="64"><defs><style type="text/css"></style></defs><path d="M1581.427984 181.018122v564.931745h169.694215v-86.316931h-56.076191V94.965899l-113.634743 0.015325zM107.885018 659.632936h57.685333V387.080359H107.885018v-74.955407l57.685333-9.48628v-75.87631c0-91.907831 20.00492-131.793676 137.21182-131.793676 25.314395 0 55.319684 3.737948 81.589813 8.470639l-15.570373 92.388485c-17.791129-2.818438-26.615641-3.318596-37.861529-3.318596-41.292974 0-51.733595 4.119684-51.733595 44.465284v65.662781h85.738754v84.44308h-85.738754v272.55397h57.083472v86.302999l-228.402155 0.023684v-86.328076zM1523.624229 632.35692c-17.775804 3.750487-33.318313 3.299091-44.565595 3.576337-46.751521 1.149388-42.712642-14.216185-42.712642-58.296947V387.080359h88.98769v-84.44308h-88.98769V94.965899h-113.63335v506.229377c0 99.392087 24.528631 144.753197 131.432838 144.753197 25.318574 0 60.108103-6.51459 86.374052-12.140321l-16.895303-101.451232zM2229.529426 660.096871c23.880795 0 43.221159 18.982313 43.221159 42.865894 0 23.876615-19.341758 42.854748-43.221159 42.854748-23.880795 0-43.106917-18.978133-43.106917-42.854748 0.001393-23.883581 19.227516-42.865894 43.106917-42.865894m0 78.984533c19.837736 0 35.996038-16.28369 35.996038-36.118639 0-19.846095-16.158302-35.636593-35.996038-35.636594-19.833556 0-35.885976 15.791891-35.885976 35.636594 0.001393 19.833556 16.052419 36.118639 35.885976 36.118639m7.959336-15.061856l-8.696338-12.735216h-5.999107v12.735216h-9.670182v-42.128892h17.625338c10.411363 0 16.903663 5.269072 16.903663 14.583989 0 6.846171-3.431445 11.505023-8.814759 13.093268l10.529785 14.450242h-11.8784z m-14.694052-21.186351H2230.508844c4.413649 0 7.350509-1.712239 7.350508-6.357159 0-4.409469-2.938253-6.132854-7.110879-6.132854h-7.955156v12.490013zM1180.864261 386.925714v-15.117583c-34.377143-6.270781-68.514656-6.361339-87.033034-6.361339-52.881589 0-59.329306 28.043668-59.329306 43.244843 0 21.505393 7.33797 33.133018 64.627635 45.659255 83.740909 18.799804 167.842656 38.414629 167.842656 142.251015 0 98.47397-50.680337 149.347962-157.357453 149.347962-71.384642 0-140.648838-15.323777-193.498383-28.734694v-84.858253h86.049436l-0.050155 15.075787c37.02979 7.152675 75.856805 6.436571 96.126433 6.436572 56.406378 0 65.53182-30.325725 65.53182-46.449197 0-22.376141-16.176414-33.121872-69.049643-43.843919-99.613605-17.020691-178.669192-51.03003-178.669192-152.216555 0-95.77674 64.057818-133.348484 170.736326-133.348484 72.272109 0 127.223989 11.208272 180.101399 24.626155v84.288435h-86.028539zM658.05305 461.51471l-8.647575-8.650362-43.916365 38.27113a20.890993 20.890993 0 0 0-7.064903-1.249698c-11.850536 0-21.444093 9.876376-21.444093 22.045953 0 12.18351 9.593556 22.057099 21.444093 22.0571 11.844963 0 21.460811-9.873589 21.460811-22.0571 0-2.311314-0.351086-4.537644-0.99335-6.631619l39.161382-43.785404z" fill="#FF282D" p-id="4033"></path><path d="M832.1024 632.35692l-0.073839-353.607402h-113.631957v33.160882a232.293355 232.293355 0 0 0-77.259755-29.227886h0.642264v-39.240794h13.863706v-28.858689h-114.416326v28.858689h13.862312v39.240794h0.78855c-108.681927 20.007706-191.04357 115.177012-191.04357 229.644887 0 129.003102 104.576174 233.579276 233.579276 233.579277 44.02782 0 85.20098-12.197442 120.351347-33.374041l20.471641 33.41723h120.026732v-113.59434h-27.160381z m-226.88357-0.257742v-13.357975h-13.614324v13.320359c-60.987211-3.554046-109.76862-52.552795-112.950683-113.638923h13.532125v-13.614323h-13.462465c3.61674-60.662596 52.197529-109.196016 112.881023-112.733345v13.388626h13.614324v-13.427635c59.816925 3.197388 108.000653 50.117486 113.207031 109.379918v3.903739h-13.640794v13.614324h13.643581l0.001393 3.728196c-5.178514 59.290297-53.374781 106.239652-113.211211 109.437039zM2038.721306 302.637279h234.367826v84.360882h-56.019069l-143.736164 353.621333c-41.19545 99.334966-108.858863 192.829649-211.908092 192.829649-25.336686 0-59.065992-2.807293-82.456381-8.42745l10.277616-103.135609c15.008914 2.807293 34.668321 4.654672 44.983554 4.654672 47.78806 0 101.693649-29.609622 118.552729-81.163493L1807.144054 387.000947h-56.021855v-84.360882h234.489034v84.360882h-56.013497l82.509323 202.99163 82.509322-202.99163h-55.896468v-84.363668z" fill="#FF282D" p-id="4034"></path></svg>